# xmcd
#
# Track frame offsets:
#	150
#	22734
#	35179
#	55285
#	80312
#	96411
#	122112
#	138152
#	158336
#	171291
#
# Disc length: 2654 seconds
#
# Revision: 1
# Processed by: cddbd v1.5.2PL0 Copyright (c) Steve Scherf et al.
# Submitted via: audiograbber 1.83.01
#
DISCID=780a5c0a
DTITLE=Ben Rogers - The Bloodred Yonder
DYEAR=2015
DGENRE=Country
TTITLE0=Wild Roses
TTITLE1=Wanted
TTITLE2=Panhandler
TTITLE3=Goodbye Rosa Lee
TTITLE4=Sinners
TTITLE5=River
TTITLE6=Don't Buy Me Roses
TTITLE7=The More I Learn
TTITLE8=Living Without You
TTITLE9=Darling Please
EXTD=
EXTT0=
EXTT1=
EXTT2=
EXTT3=
EXTT4=
EXTT5=
EXTT6=
EXTT7=
EXTT8=
EXTT9=
PLAYORDER=
